<svg width="30" height="31" viewBox="0 0 30 31" fill="none" xmlns="http://www.w3.org/2000/svg">
<path d="M15 0.5C12.0333 0.5 9.13319 1.37973 6.66645 3.02796C4.19972 4.67618 2.27713 7.01886 1.14181 9.75975C0.00649932 12.5006 -0.290551 15.5166 0.288227 18.4263C0.867006 21.3361 2.29562 24.0088 4.3934 26.1066C6.49119 28.2044 9.16393 29.633 12.0736 30.2118C14.9834 30.7905 17.9994 30.4935 20.7403 29.3582C23.4811 28.2229 25.8238 26.3003 27.472 23.8335C29.1203 21.3668 30 18.4667 30 15.5C29.9953 11.5232 28.4134 7.71061 25.6014 4.89858C22.7894 2.08655 18.9768 0.504692 15 0.5ZM21.8182 16.8636H16.3636V22.3182C16.3636 22.6798 16.22 23.0267 15.9642 23.2824C15.7085 23.5381 15.3617 23.6818 15 23.6818C14.6383 23.6818 14.2915 23.5381 14.0358 23.2824C13.78 23.0267 13.6364 22.6798 13.6364 22.3182V16.8636H8.18182C7.82016 16.8636 7.47332 16.72 7.21759 16.4642C6.96186 16.2085 6.81819 15.8617 6.81819 15.5C6.81819 15.1383 6.96186 14.7915 7.21759 14.5358C7.47332 14.28 7.82016 14.1364 8.18182 14.1364H13.6364V8.68182C13.6364 8.32016 13.78 7.97331 14.0358 7.71758C14.2915 7.46185 14.6383 7.31818 15 7.31818C15.3617 7.31818 15.7085 7.46185 15.9642 7.71758C16.22 7.97331 16.3636 8.32016 16.3636 8.68182V14.1364H21.8182C22.1798 14.1364 22.5267 14.28 22.7824 14.5358C23.0382 14.7915 23.1818 15.1383 23.1818 15.5C23.1818 15.8617 23.0382 16.2085 22.7824 16.4642C22.5267 16.72 22.1798 16.8636 21.8182 16.8636Z" fill="#5B5B5B"/>
</svg>
