<svg width="133" height="121" viewBox="0 0 133 121" fill="none" xmlns="http://www.w3.org/2000/svg">
<g clip-path="url(#clip0_21_10049)">
<path fill-rule="evenodd" clip-rule="evenodd" d="M105.218 1.48756C88.2957 -2.22435 68.8648 6.42457 65.1055 24.2649C74.1131 13.1718 87.6549 8.06415 101.282 13.3486C119.938 20.4128 120.286 43.5497 110.131 57.9097C104.61 65.6968 96.4062 71.8598 88.3464 77.9144L88.3462 77.9145L88.3461 77.9146L88.3454 77.9151C84.6274 80.7081 80.9401 83.4781 77.5611 86.3738C66.5885 95.876 59.3385 106.073 60.6262 120.604L61.3463 120.64C64.6356 107.579 71.3791 101.197 83.2122 93.9195C86.2339 92.0441 89.3382 90.2143 92.4436 88.3838L92.4437 88.3838C103.337 81.963 114.243 75.5341 121.647 67.1011C140.107 46.0853 135.86 8.04587 105.218 1.48756ZM32.5224 83.0897C44.2997 89.4212 55.7253 95.5636 58.9052 107.81V107.816C60.836 92.8596 48.233 83.4928 36.18 74.5347C30.0987 70.0149 24.1575 65.5992 20.2936 60.6221C11.8536 49.9801 9.86416 31.0549 23.2168 23.4909C41.4028 13.9338 56.7022 29.0861 62.5912 44.9516C67.5832 32.4872 78.7877 18.3039 91.7864 18.9256C81.6499 15.8659 69.6826 20.5104 63.8362 31.9447C58.8503 19.4437 36.6915 3.05404 16.4795 13.117C-4.31846 23.3933 -3.59834 52.2048 10.511 67.9545C16.3613 74.4015 24.5229 78.7892 32.5224 83.0897Z" fill="#FF496B"/>
</g>
<defs>
<clipPath id="clip0_21_10049">
<rect width="132.336" height="120" fill="white" transform="translate(0.331772 0.640381)"/>
</clipPath>
</defs>
</svg>
