<svg width="85" height="36" viewBox="0 0 85 36" fill="none" xmlns="http://www.w3.org/2000/svg">
<path fill-rule="evenodd" clip-rule="evenodd" d="M77.385 0.213319C72.9984 -0.721475 67.9616 1.45664 66.9871 5.94949C69.322 3.15585 72.8323 1.86955 76.3647 3.20036C81.2006 4.97939 81.2908 10.8061 78.6585 14.4225C77.2274 16.3836 75.1008 17.9356 73.0115 19.4604L73.0115 19.4604C72.0476 20.1639 71.0918 20.8615 70.2158 21.5908C67.3715 23.9838 65.4922 26.5518 65.826 30.2112L66.0127 30.2204C66.8653 26.9309 68.6133 25.3238 71.6807 23.4911C72.4639 23.0188 73.2686 22.558 74.0735 22.097L74.0735 22.097L74.0736 22.097L74.0736 22.097L74.0736 22.097C76.8973 20.48 79.7244 18.861 81.6435 16.7372C86.4288 11.4447 85.3278 1.86494 77.385 0.213319ZM58.5412 20.7638C61.5941 22.3583 64.5558 23.9052 65.3801 26.9893V26.9909C65.8805 23.2242 62.6136 20.8653 59.4893 18.6093C57.913 17.4711 56.3729 16.359 55.3713 15.1056C53.1835 12.4256 52.6678 7.65949 56.1291 5.7546C60.8431 3.34777 64.809 7.1637 66.3355 11.1592C67.6295 8.02021 70.5339 4.44834 73.9034 4.60491C71.2758 3.83436 68.1737 5.004 66.6582 7.8836C65.3658 4.73538 59.6219 0.607858 54.3826 3.14209C48.9915 5.73004 49.1781 12.9858 52.8355 16.9522C54.352 18.5758 56.4676 19.6808 58.5412 20.7638Z" fill="#FF496B"/>
<path d="M8.972 12.7009L14.804 27.7489C15.044 28.3249 15.3 28.7249 15.572 28.9489C15.86 29.1569 16.124 29.2689 16.364 29.2849V29.7649C15.948 29.7329 15.444 29.7169 14.852 29.7169C14.276 29.7009 13.684 29.6929 13.076 29.6929C12.372 29.6929 11.716 29.7009 11.108 29.7169C10.5 29.7169 10.004 29.7329 9.62 29.7649V29.2849C10.436 29.2529 10.956 29.1169 11.18 28.8769C11.404 28.6209 11.356 28.0849 11.036 27.2689L6.812 15.8689L7.244 15.3409L3.404 25.3009C3.1 26.1009 2.916 26.7569 2.852 27.2689C2.788 27.7809 2.828 28.1809 2.972 28.4689C3.116 28.7569 3.356 28.9649 3.692 29.0929C4.028 29.2049 4.444 29.2689 4.94 29.2849V29.7649C4.428 29.7329 3.932 29.7169 3.452 29.7169C2.972 29.7009 2.492 29.6929 2.012 29.6929C1.66 29.6929 1.324 29.7009 1.004 29.7169C0.7 29.7169 0.428 29.7329 0.188 29.7649V29.2849C0.54 29.2049 0.884 28.9969 1.22 28.6609C1.572 28.3249 1.908 27.7409 2.228 26.9089L7.724 12.7009C7.916 12.7169 8.124 12.7249 8.348 12.7249C8.572 12.7249 8.78 12.7169 8.972 12.7009ZM11.06 22.8529V23.3329H3.908L4.148 22.8529H11.06ZM25.2986 17.0209C25.9226 17.0209 26.4426 17.1089 26.8586 17.2849C27.2906 17.4609 27.6266 17.6849 27.8666 17.9569C28.1546 18.2609 28.3546 18.6689 28.4666 19.1809C28.5786 19.6769 28.6346 20.3089 28.6346 21.0769V27.5329C28.6346 28.2049 28.7466 28.6609 28.9706 28.9009C29.2106 29.1409 29.6106 29.2609 30.1706 29.2609V29.7649C29.8826 29.7489 29.4506 29.7329 28.8746 29.7169C28.2986 29.6849 27.7386 29.6689 27.1946 29.6689C26.6186 29.6689 26.0586 29.6849 25.5146 29.7169C24.9866 29.7329 24.5866 29.7489 24.3146 29.7649V29.2609C24.7786 29.2609 25.1066 29.1409 25.2986 28.9009C25.5066 28.6609 25.6106 28.2049 25.6106 27.5329V20.2609C25.6106 19.8289 25.5786 19.4449 25.5146 19.1089C25.4506 18.7569 25.3146 18.4849 25.1066 18.2929C24.8986 18.0849 24.5786 17.9809 24.1466 17.9809C23.6506 17.9809 23.2026 18.1249 22.8026 18.4129C22.4026 18.7009 22.0826 19.1009 21.8426 19.6129C21.6186 20.1089 21.5066 20.6689 21.5066 21.2929V27.5329C21.5066 28.2049 21.6026 28.6609 21.7946 28.9009C21.9866 29.1409 22.3226 29.2609 22.8026 29.2609V29.7649C22.5306 29.7489 22.1306 29.7329 21.6026 29.7169C21.0906 29.6849 20.5626 29.6689 20.0186 29.6689C19.4266 29.6689 18.8266 29.6849 18.2186 29.7169C17.6106 29.7329 17.1546 29.7489 16.8506 29.7649V29.2609C17.4426 29.2609 17.8586 29.1409 18.0986 28.9009C18.3546 28.6609 18.4826 28.2049 18.4826 27.5329V19.9729C18.4826 19.2529 18.3626 18.7249 18.1226 18.3889C17.8986 18.0369 17.4746 17.8609 16.8506 17.8609V17.3569C17.3626 17.4049 17.8586 17.4289 18.3386 17.4289C18.9306 17.4289 19.4906 17.4049 20.0186 17.3569C20.5626 17.2929 21.0586 17.2049 21.5066 17.0929V19.4929C21.9066 18.6129 22.4426 17.9809 23.1146 17.5969C23.7866 17.2129 24.5146 17.0209 25.2986 17.0209ZM32.5226 17.0209C33.1466 17.0209 33.6666 17.1089 34.0826 17.2849C34.5146 17.4609 34.8506 17.6849 35.0906 17.9569C35.3786 18.2609 35.5786 18.6689 35.6906 19.1809C35.8026 19.6769 35.8586 20.3089 35.8586 21.0769V27.5329C35.8586 28.2049 35.9786 28.6609 36.2186 28.9009C36.4746 29.1409 36.8986 29.2609 37.4906 29.2609V29.7649C37.2026 29.7489 36.7546 29.7329 36.1466 29.7169C35.5546 29.6849 34.9786 29.6689 34.4186 29.6689C33.8426 29.6689 33.2826 29.6849 32.7386 29.7169C32.2106 29.7329 31.8106 29.7489 31.5386 29.7649V29.2609C32.0026 29.2609 32.3306 29.1409 32.5226 28.9009C32.7306 28.6609 32.8346 28.2049 32.8346 27.5329V20.2609C32.8346 19.8289 32.7946 19.4449 32.7146 19.1089C32.6506 18.7569 32.5066 18.4849 32.2826 18.2929C32.0586 18.0849 31.7226 17.9809 31.2746 17.9809C30.7786 17.9809 30.3306 18.1329 29.9306 18.4369C29.5306 18.7409 29.2106 19.1489 28.9706 19.6609C28.7466 20.1569 28.6266 20.7169 28.6106 21.3409L28.4906 19.6129C28.9226 18.6209 29.4986 17.9409 30.2186 17.5729C30.9386 17.2049 31.7066 17.0209 32.5226 17.0209ZM44.5325 17.0209C45.6365 17.0209 46.6125 17.2449 47.4605 17.6929C48.3245 18.1249 49.0045 18.8209 49.5005 19.7809C50.0125 20.7409 50.2685 22.0049 50.2685 23.5729C50.2685 25.1409 50.0125 26.4049 49.5005 27.3649C49.0045 28.3249 48.3245 29.0209 47.4605 29.4529C46.6125 29.8849 45.6365 30.1009 44.5325 30.1009C43.4285 30.1009 42.4445 29.8849 41.5805 29.4529C40.7165 29.0209 40.0365 28.3249 39.5405 27.3649C39.0445 26.4049 38.7965 25.1409 38.7965 23.5729C38.7965 22.0049 39.0445 20.7409 39.5405 19.7809C40.0365 18.8209 40.7165 18.1249 41.5805 17.6929C42.4445 17.2449 43.4285 17.0209 44.5325 17.0209ZM44.5325 17.5009C43.7805 17.5009 43.1645 17.9809 42.6845 18.9409C42.2205 19.8849 41.9885 21.4289 41.9885 23.5729C41.9885 25.7169 42.2205 27.2609 42.6845 28.2049C43.1645 29.1489 43.7805 29.6209 44.5325 29.6209C45.2685 29.6209 45.8765 29.1489 46.3565 28.2049C46.8365 27.2609 47.0765 25.7169 47.0765 23.5729C47.0765 21.4289 46.8365 19.8849 46.3565 18.9409C45.8765 17.9809 45.2685 17.5009 44.5325 17.5009ZM59.8108 17.0209C60.3068 17.0209 60.7148 17.1249 61.0348 17.3329C61.3708 17.5409 61.6188 17.8049 61.7788 18.1249C61.9388 18.4449 62.0188 18.7809 62.0188 19.1329C62.0188 19.6609 61.8588 20.1009 61.5388 20.4529C61.2348 20.8049 60.8268 20.9809 60.3148 20.9809C59.8348 20.9809 59.4428 20.8529 59.1388 20.5969C58.8348 20.3409 58.6828 19.9889 58.6828 19.5409C58.6828 19.1409 58.7788 18.8049 58.9708 18.5329C59.1788 18.2609 59.4108 18.0449 59.6668 17.8849C59.4908 17.7889 59.2908 17.7569 59.0668 17.7889C58.6828 17.8209 58.3308 17.9569 58.0108 18.1969C57.6908 18.4369 57.4188 18.7329 57.1948 19.0849C56.9708 19.4369 56.7948 19.8129 56.6668 20.2129C56.5548 20.6129 56.4988 20.9969 56.4988 21.3649V27.2929C56.4988 28.0769 56.6988 28.6049 57.0988 28.8769C57.4988 29.1329 58.0828 29.2609 58.8508 29.2609V29.7649C58.4828 29.7489 57.9468 29.7329 57.2428 29.7169C56.5548 29.6849 55.8348 29.6689 55.0828 29.6689C54.4588 29.6689 53.8348 29.6849 53.2108 29.7169C52.6028 29.7329 52.1468 29.7489 51.8428 29.7649V29.2609C52.4348 29.2609 52.8508 29.1409 53.0908 28.9009C53.3468 28.6609 53.4748 28.2049 53.4748 27.5329V19.9729C53.4748 19.2529 53.3548 18.7249 53.1148 18.3889C52.8908 18.0369 52.4668 17.8609 51.8428 17.8609V17.3569C52.3548 17.4049 52.8508 17.4289 53.3308 17.4289C53.9228 17.4289 54.4828 17.4049 55.0108 17.3569C55.5548 17.2929 56.0508 17.2049 56.4988 17.0929V19.5889C56.6908 19.1409 56.9388 18.7249 57.2428 18.3409C57.5628 17.9569 57.9388 17.6449 58.3708 17.4049C58.8188 17.1489 59.2988 17.0209 59.8108 17.0209ZM66.1944 29.9329C65.5064 29.9329 64.9224 29.8049 64.4424 29.5489C63.9624 29.2769 63.6024 28.9169 63.3624 28.4689C63.1224 28.0049 63.0024 27.4929 63.0024 26.9329C63.0024 26.2449 63.1624 25.6849 63.4824 25.2529C63.8024 24.8049 64.2104 24.4529 64.7064 24.1969C65.2184 23.9249 65.7544 23.7009 66.3144 23.5249C66.8744 23.3329 67.4024 23.1569 67.8984 22.9969C68.3944 22.8209 68.8024 22.6209 69.1224 22.3969C69.4424 22.1729 69.6024 21.8769 69.6024 21.5089V19.7569C69.6024 19.2449 69.5224 18.8289 69.3624 18.5089C69.2184 18.1729 68.9944 17.9249 68.6904 17.7649C68.4024 17.5889 68.0344 17.5009 67.5864 17.5009C67.2504 17.5009 66.8984 17.5489 66.5304 17.6449C66.1624 17.7409 65.8584 17.9249 65.6184 18.1969C66.0344 18.3089 66.3544 18.5169 66.5784 18.8209C66.8184 19.1249 66.9384 19.4929 66.9384 19.9249C66.9384 20.4209 66.7704 20.8129 66.4344 21.1009C66.1144 21.3729 65.7064 21.5089 65.2104 21.5089C64.6824 21.5089 64.2824 21.3409 64.0104 21.0049C63.7384 20.6689 63.6024 20.2769 63.6024 19.8289C63.6024 19.3809 63.7144 19.0129 63.9384 18.7249C64.1624 18.4209 64.4744 18.1489 64.8744 17.9089C65.2744 17.6369 65.7864 17.4209 66.4104 17.2609C67.0344 17.1009 67.7144 17.0209 68.4504 17.0209C69.1544 17.0209 69.7784 17.1009 70.3224 17.2609C70.8664 17.4049 71.3304 17.6689 71.7144 18.0529C72.0984 18.4209 72.3464 18.8769 72.4584 19.4209C72.5704 19.9649 72.6264 20.6289 72.6264 21.4129V27.9889C72.6264 28.3889 72.6744 28.6769 72.7704 28.8529C72.8664 29.0129 73.0184 29.0929 73.2264 29.0929C73.3864 29.0929 73.5384 29.0529 73.6824 28.9729C73.8264 28.8929 73.9864 28.7809 74.1624 28.6369L74.4264 29.0449C74.0744 29.3169 73.7064 29.5329 73.3224 29.6929C72.9384 29.8529 72.4744 29.9329 71.9304 29.9329C71.3704 29.9329 70.9224 29.8529 70.5864 29.6929C70.2664 29.5329 70.0264 29.3009 69.8664 28.9969C69.7224 28.6929 69.6424 28.3329 69.6264 27.9169C69.2424 28.5569 68.7704 29.0529 68.2104 29.4049C67.6504 29.7569 66.9784 29.9329 66.1944 29.9329ZM67.6344 28.5889C68.0184 28.5889 68.3704 28.4849 68.6904 28.2769C69.0264 28.0689 69.3304 27.7569 69.6024 27.3409V22.4929C69.4424 22.7329 69.2104 22.9489 68.9064 23.1409C68.6184 23.3329 68.3064 23.5249 67.9704 23.7169C67.6344 23.9089 67.3144 24.1329 67.0104 24.3889C66.7224 24.6289 66.4744 24.9329 66.2664 25.3009C66.0744 25.6529 65.9784 26.1089 65.9784 26.6689C65.9784 27.2929 66.1304 27.7729 66.4344 28.1089C66.7384 28.4289 67.1384 28.5889 67.6344 28.5889Z" fill="black"/>
</svg>
